<svg width="155" height="32" viewBox="0 0 155 32" fill="none" xmlns="http://www.w3.org/2000/svg">
<path fill-rule="evenodd" clip-rule="evenodd" d="M76.4547 9.98795L76.4508 6.33977H51.7734L51.7774 9.98795H62.4952V25.7348H66.5365V9.98795H76.4547ZM93.0632 6.33977H79.4307V25.7348H83.472V18.1566H88.1904L97.9481 25.7348H104.419L94.5564 18.1257L94.5618 18.1063C97.248 17.918 99.0875 17.2139 100.3 16.2117C101.746 15.0163 102.185 13.4917 102.185 12.2482C102.185 11.0047 101.746 9.48014 100.3 8.28468C98.8741 7.1061 96.5809 6.33977 93.0632 6.33977ZM128.71 24.1439L129.13 23.9008V14.5085H113.768L113.772 18.1566H125.212V21.5824C123.845 22.0455 121.883 22.3819 119.119 22.3819C115.991 22.3819 113.151 21.6572 111.123 20.4742C109.087 19.2866 107.987 17.7217 107.987 16.0373C107.987 14.352 109.088 12.7808 111.124 11.5872C113.153 10.3985 115.992 9.66809 119.119 9.66809C123.181 9.66809 126.199 10.7518 127.527 11.8181L128.908 12.9274V8.17047L128.483 7.92815C126.276 6.66805 122.6 5.9707 119.119 5.9707C115.085 5.9707 111.34 6.97341 108.575 8.71262C105.811 10.4512 103.946 12.991 103.946 16.0373C103.946 19.1213 105.755 21.6646 108.51 23.3987C111.258 25.1289 115.006 26.1039 119.119 26.1039C123.705 26.1039 126.71 25.3019 128.71 24.1439ZM154.999 23.8146V19.027L153.605 20.1934C151.952 21.5764 149.329 22.4065 146.149 22.4065C142.742 22.4065 140.194 21.6048 138.522 20.4171C136.864 19.2385 136.054 17.6779 136.054 16.0373C136.054 14.3975 136.863 12.8434 138.521 11.6709C140.192 10.4889 142.74 9.69269 146.149 9.69269C149.469 9.69269 151.937 10.6783 153.391 11.8636L154.776 12.9928V8.24713L154.388 7.99908C152.28 6.65285 149.385 5.99531 146.149 5.99531C137.554 5.99531 132.013 10.4163 132.013 16.0373C132.013 18.9913 133.384 21.5499 135.865 23.3437C138.325 25.1229 141.839 26.1285 146.149 26.1285C149.389 26.1285 152.451 25.5279 154.627 24.0645L154.999 23.8146ZM93.0632 14.5085H83.472V9.98795H93.0632C95.3411 9.98795 96.6125 10.4015 97.2915 10.8643C97.9266 11.2971 98.0944 11.805 98.0944 12.2482C98.0944 12.6914 97.9266 13.1993 97.2915 13.6321C96.6125 14.0949 95.3411 14.5085 93.0632 14.5085Z" fill="white" fill-opacity="0.4"/>
<path fill-rule="evenodd" clip-rule="evenodd" d="M24.2344 25.0551C26.7232 22.8267 28.2884 19.5952 28.2884 15.9996C28.2884 12.404 26.7232 9.17249 24.2344 6.94414C25.4701 6.25661 26.861 5.81272 28.3416 5.67773C30.7058 8.46394 32.131 12.066 32.131 15.9996C32.131 19.9332 30.7058 23.5353 28.3416 26.3215C26.861 26.1865 25.4701 25.7426 24.2344 25.0551Z" fill="white" fill-opacity="0.4"/>
<path fill-rule="evenodd" clip-rule="evenodd" d="M16.0651 0C17.395 0 18.6872 0.16096 19.9231 0.464389C20.171 0.525266 20.4171 0.604893 20.6626 0.675609C21.3607 0.876691 22.0389 1.12291 22.6938 1.41079L22.6936 1.42144C24.7146 0.508415 26.959 0 29.3226 0C38.1951 0 45.3877 7.16384 45.3877 16.0009C45.3877 24.8379 38.1951 32.0017 29.3226 32.0017C26.9589 32.0017 24.7144 31.4933 22.6934 30.5802L22.6938 30.5984C22.138 30.8428 21.5654 31.0571 20.9781 31.2393C20.4738 31.3957 19.9657 31.5358 19.449 31.6461C18.358 31.8791 17.2259 32.0017 16.0651 32.0017C7.19257 32.0017 0 24.8379 0 16.0009C0 7.16384 7.19257 0 16.0651 0ZM11.9095 27.4286C13.3105 27.9343 14.8292 28.1949 16.4109 28.1588C17.1596 28.1418 17.8911 28.059 18.6 27.9162C15.3206 24.9866 13.2576 20.7337 13.2576 16.0009C13.2576 11.2713 15.3178 7.02101 18.5931 4.0917C17.8864 3.94971 17.1572 3.86738 16.4109 3.85038C15.0884 3.82026 13.8101 3.99748 12.6077 4.35191C11.9647 4.54146 11.3317 4.76378 10.8977 4.96572C6.73033 6.9049 3.84281 11.117 3.84281 16.0009C3.84281 20.8136 6.64686 24.9741 10.7165 26.9499C11.1035 27.1377 11.4983 27.2802 11.9095 27.4286ZM41.5449 16.0009C41.5449 22.7241 36.0728 28.1743 29.3226 28.1743C22.5725 28.1743 17.1004 22.7241 17.1004 16.0009C17.1004 9.27768 22.5725 3.82745 29.3226 3.82745C36.0728 3.82745 41.5449 9.27768 41.5449 16.0009Z" fill="white" fill-opacity="0.4"/>
</svg>
